<svg height="512" viewBox="0 0 58 58" width="512" xmlns="http://www.w3.org/2000/svg"><g id="Page-1" fill="none" fill-rule="evenodd"><g id="009---Spam-Email" fill-rule="nonzero"><path id="Shape" d="m57.27 23.48c-.172698-.2463564-.3741159-.471273-.6-.67l-11.19-10.03-.01-.01h-32.94l-.01.01-11.19 10.03c-.84132241.763081-1.32382812 1.844184-1.33 2.98v28.21c.00385309 2.207541 1.79245897 3.9961469 4 4h50c2.207541-.0038531 3.9961469-1.792459 4-4v-28.21c.0005774-.8268364-.2543888-1.6336474-.73-2.31z" fill="#f0c419"/><path id="Shape" d="m57.27 23.48-23.44 17.02-2.54 1.84c-1.3734716.9950195-3.2253154 1.0150611-4.62.05l-2.62-1.81-23.72-16.37c.22308789-.5363316.56501209-1.0150255 1-1.4l11.19-10.03.01-.01h32.94l.01.01 11.19 10.03c.2258841.198727.427302.4236436.6.67z" fill="#f0c419"/><path id="Shape" d="m24.05 40.58-22.68 16.43c-.87170949-.757073-1.37162562-1.8554289-1.37-3.01v-28.21c-.0026412-.544044.10981998-1.0824946.33-1.58z" fill="#f29c1f"/><path id="Shape" d="m56.63 57.01c-.7273468.6384446-1.662196.990346-2.63.99h-50c-.96780405.000346-1.90265323-.3515554-2.63-.99l22.68-16.43 2.62 1.81c1.3946846.9650611 3.2465284.9450195 4.62-.05l2.54-1.84z" fill="#e57e25"/><path id="Shape" d="m58 25.79v28.21c.0016256 1.1545711-.4982905 2.252927-1.37 3.01l-22.8-16.51 23.44-17.02c.4756112.6763526.7305774 1.4831636.73 2.31z" fill="#f29c1f"/><circle id="Oval" cx="29" cy="17" fill="#ff5364" r="17"/><g fill="#fff"><path id="Shape" d="m32 7c0 1.66-3 13-3 13s-3-11.34-3-13c0-1.65685425 1.3431458-3 3-3s3 1.34314575 3 3z"/><circle id="Oval" cx="29" cy="27" r="3"/></g></g></g></svg>