<svg xmlns="http://www.w3.org/2000/svg" width="99" height="98" viewBox="0 0 99 98">
    <g fill="none" fill-rule="nonzero">
        <path fill="#EB4E7E" d="M95.957 21.979c-1.914-.639-4.255 0-5.106 1.915-3.191-5.32-7.66-10-12.766-13.83C69.787 3.894 60 .702 49.575.702c-10.426 0-20.213 3.192-28.511 9.362C12.766 16.02 6.809 24.106 3.617 33.68c-.851 2.34.426 4.68 2.766 5.532 2.34.85 4.68-.426 5.532-2.766 2.553-7.873 7.447-14.468 14.255-19.575 6.809-5.106 14.894-7.66 23.404-7.66 8.511 0 16.596 2.554 23.405 7.66 4.042 2.98 7.234 6.596 10 10.639-1.915-.213-4.043.85-4.681 2.766-.851 2.34.425 4.68 2.553 5.532L89.787 39H92.553s.213 0 .213-.213h.213s.212 0 .212-.213l.213-.212h.213s.213 0 .213-.213l.213-.213.212-.213.213-.212s0-.213.213-.213v-.213s0-.213.213-.213v-.212l3.191-8.937c1.277-2.34 0-4.893-2.128-5.744zM3.191 75.809c1.915.638 4.256 0 5.107-1.915 3.191 5.319 7.66 10 12.766 13.83 8.298 6.17 18.085 9.361 28.51 9.361 10.426 0 20.213-3.191 28.511-9.362 8.085-5.957 14.043-14.255 17.234-23.617.851-2.34-.425-4.68-2.766-5.532-2.34-.85-4.68.426-5.532 2.766-2.553 7.873-7.447 14.469-14.255 19.575-6.809 5.106-14.894 7.66-23.404 7.66s-16.596-2.554-23.405-7.66c-4.042-2.979-7.234-6.596-10-10.638 1.915.212 4.043-.851 4.681-2.766.851-2.34-.425-4.681-2.553-5.532L9.15 58.787h-.213-.213-.212-.213l.213-.213H7.66h-.213-.213-.213-.212s-.213 0-.213.213h-.213s-.213 0-.213.213l-.213.213h-.212s-.213 0-.213.213l-.213.212-.213.213-.212.213s0 .213-.213.213v.212s0 .213-.213.213v.213L1.277 69.85C-.213 72.617.85 74.957 3.19 75.81z"/>
        <path fill="#FCD249" d="M70.213 69.426C62.34 73.894 52.34 71.34 47.66 63.468c-4.681-7.872-1.915-17.872 5.957-22.553C61.489 36.234 71.489 39 76.17 46.872c4.681 7.873 1.915 17.873-5.957 22.554z"/>
        <g fill="#F8B937">
            <path d="M50.426 61.766c-4.256-7.447-2.128-16.809 4.68-21.702l-1.276.638c-7.873 4.468-10.639 14.681-5.958 22.553 4.468 7.873 14.681 10.639 22.554 5.958.425-.213.85-.639 1.276-.851-7.872 3.617-17.021.85-21.276-6.596z"/>
            <path d="M55.32 43.468c-6.384 3.617-8.511 11.915-4.894 18.298 3.617 6.383 11.914 8.51 18.297 4.894 6.383-3.617 8.511-11.915 4.894-18.298-3.83-6.383-11.915-8.51-18.298-4.894z"/>
        </g>
        <g fill="#E69E24">
            <path d="M52.766 60.49c-3.404-5.958-1.702-13.618 3.83-17.66l-1.277.638c-6.383 3.617-8.51 11.915-4.893 18.298 3.617 6.383 11.914 8.51 18.297 4.894.426-.213.851-.426 1.277-.851-6.383 2.978-13.83.638-17.234-5.32zM57.66 31.766H25.957c-.85 0-1.489.638-1.489 1.49v1.063c0 .851.638 1.49 1.49 1.49H57.66c.85 0 1.489-.639 1.489-1.49v-1.064c-.213-.85-.851-1.489-1.49-1.489z"/>
        </g>
        <path fill="#F8B937" d="M60.426 27.936H28.723c-.85 0-1.489.638-1.489 1.49v1.063c0 .851.638 1.49 1.49 1.49h31.702c.85 0 1.489-.639 1.489-1.49v-1.063c0-.852-.638-1.49-1.49-1.49z"/>
        <path fill="#E69E24" d="M57.66 23.894H25.957c-.85 0-1.489.638-1.489 1.489v1.064c0 .85.638 1.49 1.49 1.49H57.66c.85 0 1.489-.64 1.489-1.49v-1.064c-.213-.851-.851-1.49-1.49-1.49z"/>
        <path fill="#F8B937" d="M28.723 67.51c-.85 0-1.489.639-1.489 1.49v1.064c0 .85.638 1.49 1.49 1.49h23.83c-4.043 0-6.384-1.49-9.363-4.043H28.723z"/>
        <path fill="#E69E24" d="M39.787 63.68H25.745c-.851 0-1.49.64-1.49 1.49v1.064c0 .851.639 1.49 1.49 1.49H43.19a31.111 31.111 0 0 1-3.404-4.043z"/>
        <path fill="#F8B937" d="M38.085 59.638h-9.362c-.85 0-1.489.639-1.489 1.49v1.063c0 .852.638 1.49 1.49 1.49h11.063c-.638-1.277-1.276-2.553-1.702-4.043z"/>
        <path fill="#E69E24" d="M37.447 55.596h-6.17c-.851 0-1.49.638-1.49 1.49v1.063c0 .851.639 1.49 1.49 1.49h6.808c-.425-1.277-.638-2.554-.638-4.043z"/>
        <path fill="#F8B937" d="M37.872 51.766H25.957c-.85 0-1.489.638-1.489 1.49v1.063c0 .851.638 1.49 1.49 1.49H37.66c-.213-1.49 0-2.766.212-4.043z"/>
        <path fill="#E69E24" d="M39.149 47.723H28.723c-.85 0-1.489.639-1.489 1.49v1.064c0 .85.638 1.489 1.49 1.489h9.148c.213-1.49.639-2.766 1.277-4.043z"/>
        <g fill="#F8B937">
            <path d="M42.128 43.68H28.723c-.85 0-1.489.64-1.489 1.49v1.064c0 .851.638 1.49 1.49 1.49h10.425c.851-1.49 1.702-2.767 2.979-4.043zM58.936 38.362c0-1.064 0-1.277-.213-1.915-.212-.426-.638-.638-1.276-.638H25.745c-.851 0-1.49.638-1.49 1.489 0 .85 0 1.276.213 1.702.213.426.638.851 1.277.851h31.702c.638 0 1.064-.425 1.276-.851v-.213c.213-.213.213-.425.213-.425z"/>
        </g>
        <path fill="#E69E24" d="M47.872 39.851H31.277c-.851 0-1.49.638-1.49 1.49v1.063c0 .851.639 1.49 1.49 1.49h10.638c1.702-1.915 3.83-3.192 5.957-4.043z"/>
        <path fill="#D78E28" d="M30 34.32v-1.065c0-.85.638-1.489 1.49-1.489h-5.533c-.85 0-1.489.638-1.489 1.49v1.063c0 .851.638 1.49 1.49 1.49h5.531c-.85 0-1.489-.639-1.489-1.49z"/>
        <path fill="#E69E24" d="M32.766 30.49v-1.064c0-.852.638-1.49 1.49-1.49h-5.533c-.85 0-1.489.638-1.489 1.49v1.063c0 .851.638 1.49 1.49 1.49h5.531c-.85-.213-1.489-.851-1.489-1.49z"/>
        <path fill="#D78E28" d="M30 26.447v-1.064c0-.851.638-1.49 1.49-1.49h-5.533c-.85 0-1.489.639-1.489 1.49v1.064c0 .85.638 1.49 1.49 1.49h5.531c-.85 0-1.489-.64-1.489-1.49z"/>
        <path fill="#E69E24" d="M32.766 70.064V69c0-.851.638-1.49 1.49-1.49h-5.533c-.85 0-1.489.639-1.489 1.49v1.064c0 .85.638 1.49 1.49 1.49h5.531c-.85 0-1.489-.64-1.489-1.49z"/>
        <path fill="#D78E28" d="M30 66.234v-1.277c0-.85.638-1.489 1.49-1.489h-5.533c-.85 0-1.489.638-1.489 1.49v1.063c0 .851.638 1.49 1.49 1.49h5.531c-.85 0-1.489-.639-1.489-1.277z"/>
        <path fill="#E69E24" d="M32.766 62.191v-1.063c0-.851.638-1.49 1.49-1.49h-5.533c-.85 0-1.489.639-1.489 1.49v1.063c0 .852.638 1.49 1.49 1.49h5.531c-.85 0-1.489-.638-1.489-1.49z"/>
        <path fill="#D78E28" d="M35.532 58.149v-1.064c0-.851.638-1.49 1.49-1.49h-5.533c-.85 0-1.489.639-1.489 1.49v1.064c0 .851.638 1.49 1.49 1.49h5.531c-.85 0-1.49-.639-1.49-1.49z"/>
        <path fill="#E69E24" d="M30 54.32v-1.065c0-.85.638-1.489 1.49-1.489h-5.533c-.85 0-1.489.638-1.489 1.49v1.063c0 .851.638 1.49 1.49 1.49h5.531c-.85-.213-1.489-.852-1.489-1.49z"/>
        <path fill="#D78E28" d="M32.766 50.277v-1.064c0-.851.638-1.49 1.49-1.49h-5.533c-.85 0-1.489.639-1.489 1.49v1.064c0 .85.638 1.489 1.49 1.489h5.531c-.85 0-1.489-.638-1.489-1.49z"/>
        <g fill="#E69E24">
            <path d="M32.766 46.234V45.17c0-.85.638-1.49 1.49-1.49h-5.533c-.85 0-1.489.64-1.489 1.49v1.064c0 .851.638 1.49 1.49 1.49h5.531c-.85 0-1.489-.639-1.489-1.49zM30.213 39c-.213-.426 0-.851-.213-1.702 0-.851.638-1.49 1.49-1.49h-5.533c-.85 0-1.489.639-1.489 1.49 0 .85 0 1.276.213 1.702.213.426.638.851 1.276.851h5.532c-.638 0-1.063-.425-1.276-.851z"/>
        </g>
        <path fill="#D78E28" d="M35.532 42.404V41.34c0-.85.638-1.489 1.49-1.489h-5.533c-.85 0-1.489.638-1.489 1.49v1.063c0 .851.638 1.49 1.49 1.49h5.531c-.85-.213-1.49-.851-1.49-1.49z"/>
        <path fill="#FCD249" d="M60.851 69.426c-7.872 4.468-17.872 1.914-22.553-5.958-4.468-7.872-1.915-17.872 5.957-22.553C52.128 36.234 62.128 39 66.81 46.872c4.468 7.873 1.914 17.873-5.958 22.554z"/>
        <g fill="#F8B937">
            <path d="M40.851 61.766c-4.255-7.447-2.128-16.809 4.68-21.702l-1.276.638c-7.872 4.468-10.638 14.681-5.957 22.553 4.468 7.873 14.68 10.639 22.553 5.958.426-.213.851-.639 1.277-.851-7.66 3.617-17.022.85-21.277-6.596z"/>
            <path d="M45.745 43.468c-6.383 3.617-8.511 11.915-4.894 18.298 3.617 6.383 11.915 8.51 18.298 4.894 6.383-3.617 8.51-11.915 4.894-18.298-3.617-6.383-11.703-8.51-18.298-4.894z"/>
        </g>
        <path fill="#E69E24" d="M43.404 60.49c-3.404-5.958-1.702-13.618 3.83-17.66l-1.277.638c-6.383 3.617-8.51 11.915-4.893 18.298 3.617 6.383 11.915 8.51 18.298 4.894.425-.213.85-.426 1.276-.851-6.383 2.978-13.83.638-17.234-5.32z"/>
        <path fill="#F3F0F0" d="M53.404 54.532v-3.404c1.064.212 1.915.85 1.915.85.426.213.851.213 1.064-.212.213-.426.213-.851-.213-1.064 0 0-1.276-.85-2.766-1.064v-.85c0-.426-.425-.852-.85-.852-.426 0-.852.426-.852.851v.851c-4.042.639-4.68 5.32 0 6.383v3.405c-1.064-.213-1.702-.639-1.915-.852-.425-.212-.85-.212-1.064.213-.212.426-.212.851.213 1.064 0 0 1.277.851 2.766 1.064v.851c0 .425.426.851.851.851.426 0 .851-.426.851-.851v-1.064c4.043-.638 4.468-5.106 0-6.17zm-1.702-3.404v2.978c-2.34-.85-1.915-2.553 0-2.978zm1.702 8.085v-2.979c2.34.638 1.915 2.34 0 2.979z"/>
    </g>
</svg>
