<svg xmlns="http://www.w3.org/2000/svg" width="29" height="24" viewBox="0 0 29 24">
    <g fill="#FFF" fill-rule="nonzero">
        <path d="M28.554 6.557c-.119-.065-2.9-1.505-7.535-2.376l-.178-.759A4.36 4.36 0 0 0 16.574.044h-4.166a4.365 4.365 0 0 0-4.267 3.378l-.178.759C3.328 5.046.547 6.49.428 6.557A.797.797 0 0 0 0 7.262v9.422c0 3.775 3.078 6.85 6.87 6.85a.798.798 0 0 0 .802-.8c0-.444-.357-.8-.802-.8-2.9 0-5.265-2.352-5.265-5.25V7.766c.962-.439 3.506-1.476 7.16-2.104a.801.801 0 0 0 .642-.604l.297-1.274a2.765 2.765 0 0 1 2.704-2.14h4.166c1.295 0 2.407.877 2.704 2.14l.297 1.274a.793.793 0 0 0 .642.604c3.643.628 6.192 1.665 7.16 2.104v8.918c0 2.892-2.359 5.25-5.264 5.25a.798.798 0 0 0-.803.8c0 .445.357.8.803.8 3.785 0 6.87-3.069 6.87-6.85V7.262a.786.786 0 0 0-.429-.705z"/>
        <path d="M2.627 4.921a.735.735 0 0 0 .25-.041c.843-.279 1.729-.527 2.632-.74a.798.798 0 0 0-.368-1.553c-.946.225-1.878.486-2.77.776A.798.798 0 0 0 1.86 4.37a.82.82 0 0 0 .767.551zM14.494 5.573c-5.093 0-9.235 4.13-9.235 9.21 0 5.078 4.142 9.214 9.235 9.214 5.093 0 9.235-4.13 9.235-9.209 0-5.078-4.142-9.215-9.235-9.215zm0 16.824c-4.207 0-7.63-3.413-7.63-7.609 0-4.195 3.423-7.615 7.63-7.615s7.63 3.414 7.63 7.61c0 4.195-3.423 7.614-7.63 7.614z"/>
    </g>
</svg>
