<svg xmlns="http://www.w3.org/2000/svg" width="141" height="124" viewBox="0 0 141 124">
    <defs>
        <filter id="a" width="143.1%" height="148.6%" x="-8.5%" y="-11.7%" filterUnits="objectBoundingBox">
            <feOffset dx="8" dy="7" in="SourceAlpha" result="shadowOffsetOuter1"/>
            <feGaussianBlur in="shadowOffsetOuter1" result="shadowBlurOuter1" stdDeviation="4.5"/>
            <feColorMatrix in="shadowBlurOuter1" result="shadowMatrixOuter1" values="0 0 0 0 0 0 0 0 0 0 0 0 0 0 0 0 0 0 0.099439538 0"/>
            <feMerge>
                <feMergeNode in="shadowMatrixOuter1"/>
                <feMergeNode in="SourceGraphic"/>
            </feMerge>
        </filter>
    </defs>
    <g fill="none" fill-rule="evenodd" filter="url(#a)" transform="translate(1 2)">
        <path fill="#97D0CB" d="M83.994 36c.07 0 .139.02.231.065.085.046.139.107.24.137.123.041.285-.005.4.056.317.174.008.388-.239.443-.2.051-.416.098-.625.148-.13.03-.3.092-.308.219-.016.118.13.203.27.224l.162.01h.077l.162.016c.131.035.24.178.17.28l-.116.087c-.085.066-.116.172-.162.27-.185.378-.64.628-1.103.628-.1 0-.193-.01-.286-.033l-.177-.03-.085.02c-.116.061-.093.209-.154.31-.054.109-.186.15-.325.15a1.02 1.02 0 0 1-.354-.074c-.348-.147-.68-.381-.772-.713v-.066l.07-.04c.285-.117.424-.417.663-.6.463-.347 1.18-.225 1.566-.684.224-.27.34-.823.695-.823M65.437 45c.18 0 .37.057.46.172.22.295-.02.392-.3.392-.17 0-.35-.035-.46-.084l-.11-.086c-.11-.263.14-.394.41-.394"/>
        <path fill="#97D0CB" d="M64.228 45c.27 0 .885.308.754.502-.05.066-.172.088-.279.088l-.09.005c-.082 0-.163 0-.22.021-.099.036-.156.11-.238.16-.107.07-.262.096-.402.118l-.655.106-.073-.004-.025-.04c0-.146.213-.234.401-.296.107-.035.213-.07.328-.101l.196-.097c.156-.145-.147-.383.254-.458l.05-.004M73.503 43c.29 0 .56.125.31.386-.08.077-.24.124-.4.124-.16 0-.3-.041-.37-.138-.16-.245.16-.372.46-.372M74.494 42c.25 0 .45.118.25.43-.05.078-.15.115-.24.115h-.03c-.1 0-.19-.044-.29-.079l-.09-.051c-.27-.228.1-.415.4-.415M69.33 44c.325 0 .96.195.519.49a.394.394 0 0 1-.225.057l-.131-.006c-.109-.015-.21-.022-.31-.037l-.179-.092c-.03-.101.109-.366.194-.395L69.33 44M65 33c.35.012.699.152.929.379.279.275-.33.621-.65.621l-.03-.002c-.149-.012-.279-.12-.418-.157-.2-.064-.49-.032-.669-.12-.559-.277.48-.721.838-.721"/>
        <path fill="#76BDBB" d="M82.126 39a1.02 1.02 0 0 1-.354-.074c-.348-.147-.68-.381-.772-.713v-.066l.07-.04c.285-.117.424-.417.663-.6.463-.347 1.18-.225 1.566-.684.224-.27.34-.823.695-.823.07 0 .139.02.231.065.085.046.139.107.24.137.123.041.285-.005.4.056.317.174.008.388-.239.443-.2.051-.416.098-.625.148-.13.03-.3.092-.308.219-.016.118.13.203.27.224l.162.01h.077l.162.016c.131.035.24.178.17.28l-.116.087c-.085.066-.116.172-.162.27-.185.378-.64.628-1.103.628-.1 0-.193-.01-.286-.033l-.177-.03-.085.02c-.116.061-.093.209-.154.31-.054.109-.186.15-.325.15M65.597 45.564c-.17 0-.35-.035-.46-.084l-.11-.086c-.11-.263.14-.394.41-.394.18 0 .37.057.46.172.22.295-.02.392-.3.392"/>
        <path fill="#76BDBB" d="M63.098 46l-.073-.004-.025-.04c0-.146.213-.234.401-.296.107-.035.213-.07.328-.101l.196-.097c.156-.145-.147-.383.254-.458l.05-.004c.27 0 .884.308.753.502-.05.066-.172.088-.279.088l-.09.005c-.082 0-.163 0-.22.021-.099.036-.156.11-.238.16-.107.07-.262.096-.402.118l-.655.106M73.413 43.51c-.16 0-.3-.041-.37-.138-.16-.245.16-.372.46-.372.29 0 .56.125.31.386-.08.077-.24.124-.4.124M74.504 42.545h-.03c-.1 0-.19-.044-.29-.079l-.09-.051c-.27-.228.1-.415.4-.415.25 0 .45.118.25.43-.05.078-.15.115-.24.115M69.624 44.547l-.131-.006c-.109-.015-.21-.022-.31-.037l-.179-.092c-.03-.101.109-.366.194-.395L69.33 44c.325 0 .96.195.519.49a.394.394 0 0 1-.225.057M65.28 34l-.03-.002c-.15-.012-.28-.12-.42-.157-.199-.064-.488-.032-.668-.12-.559-.277.48-.721.838-.721.35.012.699.152.929.379.279.275-.33.621-.65.621"/>
        <path fill="#FFFFFE" d="M91.136 4.429L6.636 30.73C1.66 32.279-1.115 37.568.427 42.543L20.482 107 123 75.09l-20.055-64.455c-1.543-4.976-6.831-7.755-11.81-6.206"/>
        <path fill="#D34E64" d="M20.425 106L123 74.344 111.598 38 9 69.58 20.425 106"/>
        <path fill="#B83153" d="M12.413 81L115 48.952 111.595 38 9 70.024 12.413 81"/>
        <path fill="#F3B632" d="M88.66 45.735C93.5 61.288 84.817 77.82 69.264 82.66 53.71 87.5 37.18 78.817 32.34 63.264 27.5 47.713 36.18 31.181 51.735 26.34 67.29 21.5 83.82 30.183 88.66 45.735"/>
        <path fill="#FFFFFE" d="M83.887 47.221c4.02 12.916-3.193 26.646-16.106 30.666-12.922 4.02-26.647-3.192-30.668-16.108-4.02-12.916 3.193-26.646 16.106-30.666 12.914-4.02 26.647 3.191 30.668 16.108"/>
        <path fill="#9F244A" d="M78.16 49.003c3.034 9.754-2.414 20.12-12.165 23.157-9.751 3.035-20.122-2.41-23.156-12.163-3.033-9.754 2.415-20.12 12.166-23.157 9.751-3.035 20.114 2.41 23.156 12.163"/>
        <path fill="#D34E64" d="M96.795 15.163a4.496 4.496 0 0 1-2.954 5.632 4.5 4.5 0 0 1-5.636-2.958 4.495 4.495 0 0 1 2.962-5.633 4.492 4.492 0 0 1 5.628 2.96"/>
        <path fill="#ECB32D" d="M114 69.157L104.366 72 103 67.843 112.634 65 114 69.157"/>
        <path fill="#B83153" d="M35.307 21.728l-.04-6.074 22.72-7.146 3.682 4.91L69 11.104 60.682 0 28 10.278 28.103 24l7.204-2.272"/>
        <path fill="#D34E64" d="M16.024 21L2 25.062 3.976 31 18 26.938 16.024 21"/>
        <path fill="#FFFFFE" d="M66.795 63.473l-.107.094a1.952 1.952 0 0 0-.23 2.744 1.935 1.935 0 0 0 2.054.602c.246-.076.475-.2.675-.374l.138-.118a1.954 1.954 0 0 0 .207-2.747 1.937 1.937 0 0 0-2.737-.201M72.022 48.093c-.971.335-1.508 1.48-1.21 2.56.87 3.124.645 6.467-.631 9.411-.436 1.017-.059 2.24.855 2.732.435.234.914.26 1.342.112a1.892 1.892 0 0 0 1.102-1.063c1.682-3.881 1.98-8.287.834-12.405-.297-1.079-1.327-1.683-2.292-1.347"/>
    </g>
</svg>
