<svg xmlns="http://www.w3.org/2000/svg" width="163" height="130" viewBox="0 0 163 130">
    <g fill="none" fill-rule="evenodd">
        <path fill="#CFD1D2" d="M78.52 44.117l-5.077-1.172 2.806-11.964 5.077 1.172-2.806 11.964M70.903 26.198c.437-1.86 2.308-3.016 4.181-2.584l10.56 2.437c1.876.433 3.041 2.29 2.606 4.15-.436 1.86-2.31 3.016-4.183 2.584l-10.56-2.437c-1.874-.432-3.041-2.29-2.604-4.15"/>
        <path fill="#59595B" d="M70.96 129.857l-4.84-.5 8.608-82.009 52.386 64.232-3.782 3.036L78.35 59.46l-7.39 70.396"/>
        <path fill="#E5E5E6" d="M73.98 41.525l-3.245 4.047-9.688-7.647 3.245-4.047 9.688 7.647"/>
        <path fill="#E5E5E6" d="M54.399 40.664a3.438 3.438 0 0 1-.557-4.858l6.748-8.418a3.504 3.504 0 0 1 4.897-.553 3.438 3.438 0 0 1 .556 4.857l-6.748 8.419a3.504 3.504 0 0 1-4.896.553"/>
        <path fill="#919395" d="M76.56 43.474l-5.003 1.457-4.032-13.63 5.001-1.456 4.034 13.63"/>
        <path fill="#919395" d="M60.853 30.936a3.453 3.453 0 0 1 2.363-4.29l10.401-3.03c1.848-.538 3.782.51 4.325 2.343a3.453 3.453 0 0 1-2.362 4.29l-10.402 3.03c-1.847.538-3.784-.511-4.325-2.343"/>
        <path fill="#D3616A" d="M125.097 67.914c6.572 22.212-6.248 45.503-28.634 52.023-22.387 6.52-45.861-6.201-52.431-28.413S50.282 46.02 72.668 39.5c22.385-6.52 45.86 6.201 52.43 28.413"/>
        <path fill="#B5495B" d="M125.097 67.914c6.572 22.212-6.248 45.503-28.634 52.023-22.387 6.52-45.861-6.201-52.431-28.413S50.282 46.02 72.668 39.5c22.385-6.52 45.86 6.201 52.43 28.413"/>
        <path fill="#D3616A" d="M123.278 68.444c6.274 21.214-5.97 43.46-27.35 49.686-21.38 6.227-43.8-5.923-50.075-27.136-6.277-21.214 5.968-43.46 27.35-49.687C94.58 35.081 117 47.23 123.277 68.444"/>
        <path fill="#FFF" d="M103.635 52.177C95.577 46.69 85.19 44.71 75.08 47.655 57.233 52.853 47.011 71.422 52.25 89.13a33.22 33.22 0 0 0 8.35 14.074c8.427 8.453 21.146 12.162 33.451 8.578 17.847-5.198 28.069-23.767 22.829-41.476-2.271-7.677-7.077-13.93-13.245-18.13"/>
        <path fill="#F0F1F1" d="M103.635 52.177a33.198 33.198 0 0 1 8.35 14.074c5.24 17.709-4.983 36.278-22.828 41.476-10.11 2.944-20.5.965-28.558-4.522 8.428 8.453 21.147 12.162 33.452 8.578 17.847-5.198 28.069-23.767 22.829-41.476-2.271-7.677-7.077-13.93-13.245-18.13"/>
        <path fill="#B5495B" d="M124.032 49.06c5.19-9.162 1.852-20.796-7.457-25.985-9.306-5.189-21.057-1.968-26.245 7.195l33.702 18.79"/>
        <path fill="#D3616A" d="M119.286 46.173c4.47-7.894 1.593-17.919-6.427-22.39-8.02-4.47-18.145-1.695-22.616 6.2l29.043 16.19"/>
        <path fill="#B5495B" d="M34.197 75.449c-9.356-4.927-12.883-16.506-7.88-25.862 5.005-9.357 16.645-12.949 26.002-8.022L34.197 75.449"/>
        <path fill="#D3616A" d="M36.695 70.781c-8.068-4.248-11.11-14.231-6.796-22.3 4.316-8.067 14.352-11.164 22.42-6.916L36.695 70.78"/>
        <path fill="#59595B" d="M82.732 82.768l-6.407-21.657 4.669-1.358 5.035 17.024 13.75-4.004 1.372 4.63-18.419 5.365"/>
        <path fill="#D3616A" d="M89.057 78.41c.726 2.451-.69 5.021-3.16 5.74-2.47.72-5.06-.684-5.784-3.134-.725-2.45.69-5.02 3.158-5.74 2.471-.72 5.062.684 5.786 3.135"/>
        <path fill="#59595B" d="M60.88 86.617a2.37 2.37 0 0 1-1.622 2.945 2.393 2.393 0 0 1-2.966-1.608 2.37 2.37 0 0 1 1.62-2.945 2.393 2.393 0 0 1 2.967 1.608M113.74 71.222a2.37 2.37 0 0 1-1.622 2.945 2.393 2.393 0 0 1-2.967-1.608 2.37 2.37 0 0 1 1.62-2.945 2.395 2.395 0 0 1 2.968 1.608M77.931 55.64a2.395 2.395 0 0 1-2.968-1.609 2.37 2.37 0 0 1 1.62-2.944 2.393 2.393 0 0 1 2.968 1.608 2.367 2.367 0 0 1-1.62 2.945M93.447 108.088a2.395 2.395 0 0 1-2.969-1.608 2.37 2.37 0 0 1 1.621-2.944 2.393 2.393 0 0 1 2.967 1.608 2.367 2.367 0 0 1-1.62 2.944"/>
        <path fill="#CFD1D2" d="M125.645 55.236a22.81 22.81 0 0 1 1.845 2.23c.578.775 1.11 1.58 1.621 2.4a42.16 42.16 0 0 1 2.697 5.136 43.186 43.186 0 0 1 2.358 6.89l.33 1.426c.188.958.37 1.918.496 2.889l.096.727c.03.243.046.488.072.731.039.488.095.975.121 1.464l.05 1.47c.018.49.002.98-.006 1.47-.055 1.96-.24 3.92-.652 5.838l-.146.719c-.045.24-.122.474-.18.712-.126.472-.25.945-.385 1.413-.154.465-.31.927-.474 1.386l-.245.686-.285.674c-.198.445-.382.893-.589 1.331-.228.431-.448.862-.68 1.286-.118.212-.224.427-.35.634l-.391.612c-.27.403-.526.809-.804 1.2.108-.472.239-.93.354-1.393l.189-.684.159-.692c.102-.462.213-.917.321-1.372l.263-1.376.137-.682.102-.69.209-1.369c.087-.92.226-1.826.267-2.744.085-.912.098-1.828.135-2.739.015-.455-.009-.914-.002-1.369l.002-.683-.033-.684c-.028-.455-.021-.91-.058-1.365l-.105-1.363c-.032-.455-.09-.908-.134-1.362-.024-.227-.042-.454-.074-.68l-.098-.678c-.102-.908-.27-1.808-.42-2.71l-.256-1.352-.29-1.347c-.399-1.794-.868-3.58-1.392-5.36-1.054-3.561-2.32-7.081-3.775-10.63M137.192 58.502c.517.462.975.976 1.415 1.505.44.529.845 1.083 1.234 1.65a27.214 27.214 0 0 1 3.519 7.45c.402 1.327.695 2.691.88 4.074.187 1.381.274 2.782.213 4.182-.052 1.398-.211 2.796-.54 4.158-.073.34-.154.68-.26 1.014-.1.335-.198.67-.306 1-.122.328-.244.654-.372.977l-.196.482-.221.472c-.155.311-.3.624-.461.929-.178.3-.35.599-.533.891-.09.146-.176.295-.273.437l-.305.42a19.6 19.6 0 0 1-.632.815c.23-1.363.526-2.644.678-3.947l.074-.48.05-.485.108-.96c.033-.645.114-1.275.12-1.914.067-1.27.05-2.535-.009-3.795a41.433 41.433 0 0 0-.35-3.769c-.326-2.508-.88-5-1.536-7.504-.66-2.509-1.448-5.003-2.297-7.602M35.201 81.577c.711 3.766 1.563 7.406 2.615 10.967a82.258 82.258 0 0 0 1.75 5.257l.489 1.288.521 1.274c.365.84.713 1.687 1.122 2.506l.289.623c.095.207.204.408.306.612.21.405.409.818.628 1.218l.657 1.203c.215.402.469.782.693 1.18l.345.593.374.574c.254.379.485.776.746 1.152.526.747 1.036 1.51 1.604 2.233.534.75 1.145 1.436 1.719 2.166l.921 1.039.46.525.488.501.971 1.017c.34.325.683.647 1.02.981l.508.498.533.475c.35.326.708.643 1.056.982-.448-.18-.883-.384-1.33-.578l-.663-.306c-.218-.107-.424-.231-.64-.346-.425-.233-.847-.477-1.27-.718-.413-.258-.813-.536-1.222-.804l-.606-.414-.583-.445c-.384-.3-.77-.605-1.152-.913-.37-.322-.73-.653-1.093-.983-.18-.168-.371-.326-.541-.502l-.513-.527c-1.39-1.392-2.617-2.943-3.73-4.562-.273-.408-.554-.814-.806-1.234l-.758-1.264c-.246-.425-.46-.865-.693-1.297-.113-.218-.233-.432-.34-.653l-.315-.663c-.423-.885-.793-1.79-1.158-2.696l-.498-1.377a43.047 43.047 0 0 1-1.77-7.062 41.822 41.822 0 0 1-.527-5.766 34.58 34.58 0 0 1 .057-2.888c.058-.96.156-1.92.336-2.866M27.267 90.517c.702 2.642 1.397 5.163 2.208 7.628.813 2.458 1.704 4.851 2.795 7.137a41.796 41.796 0 0 0 1.758 3.359 38.46 38.46 0 0 0 2.058 3.197c.354.534.765 1.022 1.145 1.546l.615.75.305.381.326.365c.836 1.015 1.784 1.934 2.719 2.957a19.965 19.965 0 0 1-.976-.347l-.485-.19c-.16-.067-.31-.147-.47-.22-.312-.148-.619-.308-.932-.466-.302-.169-.593-.355-.895-.534l-.444-.278-.425-.3a42.454 42.454 0 0 1-.846-.623c-.272-.22-.535-.45-.802-.678a11.1 11.1 0 0 1-.771-.713c-1.018-.97-1.915-2.06-2.72-3.209a23.87 23.87 0 0 1-2.099-3.634c-1.197-2.525-1.964-5.222-2.338-7.947a26.804 26.804 0 0 1-.237-4.107c.02-.685.056-1.368.141-2.05.08-.68.185-1.358.37-2.024"/>
        <path fill="#4674B7" d="M86.027 0l.14 13.318 3.576-2.224 2.63 8.331.172-13.328-3.83 2.328L86.027 0M110.375 1.484L99.904 9.816l3.973 1.42-4.982 7.196 10.671-8.096-4.21-1.551 5.019-7.3M22.998 29.672l10.821 7.881.354-4.174 8.294 2.911-10.643-8.133-.42 4.436-8.406-2.92M38.805 11.236l.435 13.312 3.527-2.301 2.812 8.271-.124-13.328-3.775 2.41-2.875-8.364M147.332 25.263l-9.75 9.156 4.078 1.092-4.368 7.577 9.964-8.937-4.322-1.203 4.398-7.685M162.79 43.989l-13.28-1.955 1.654 3.855-8.706 1.268 13.24 2.261-1.717-4.117 8.808-1.312M2.804 67.356l13.19 2.476-2.834 3.104 7.802 4.032-13.253-2.175 2.982-3.33-7.887-4.107M0 91.4l10.106-8.765.71 4.129 8.016-3.6-9.908 9.001-.8-4.384L0 91.4"/>
    </g>
</svg>
