<svg xmlns="http://www.w3.org/2000/svg" width="23" height="20" viewBox="0 0 23 20">
    <g fill="#60585A" fill-rule="nonzero">
        <path d="M4.5 10.5c-1.103 0-2 .897-2 2s.897 2 2 2 2-.897 2-2-.897-2-2-2zm0 2.667a.668.668 0 1 1 .002-1.335.668.668 0 0 1-.002 1.335zM18.5 10.5c-1.103 0-2 .897-2 2s.897 2 2 2 2-.897 2-2-.897-2-2-2zm0 2.667a.668.668 0 1 1 .002-1.335.668.668 0 0 1-.002 1.335z"/>
        <path d="M23 7.333c0-1.102-.907-2-2.021-2-.525 0-1.004.2-1.363.525l-.424-1.676a2.015 2.015 0 0 0-1.961-1.515h-1.227L14.843.369A.674.674 0 0 0 14.24 0H8.76a.674.674 0 0 0-.603.369L6.996 2.667H5.769c-.93 0-1.736.623-1.961 1.515l-.424 1.676a2.026 2.026 0 0 0-1.363-.525 2.013 2.013 0 0 0-2.021 2c0 .711.377 1.336.943 1.69A3.303 3.303 0 0 0 0 11.334v4c0 1.103.907 2 2.021 2h.674V18c0 1.103.907 2 2.022 2h1.347a2.013 2.013 0 0 0 2.022-2v-.667h6.828V18c0 1.103.907 2 2.022 2h1.347a2.013 2.013 0 0 0 2.022-2v-.667h.674a2.013 2.013 0 0 0 2.021-2v-4c0-.896-.36-1.71-.943-2.31.566-.354.943-.979.943-1.69zm-2.021-.666c.371 0 .673.299.673.666A.671.671 0 0 1 20.98 8a.671.671 0 0 1-.674-.667c0-.367.302-.666.674-.666zM9.176 1.333h4.648l.674 1.334H8.502l.674-1.334zm-4.06 3.172a.672.672 0 0 1 .653-.506h11.462c.31 0 .579.209.654.506L18.768 8h-1.226a3.366 3.366 0 0 0-3.302-2.667c-1.66 0-3.032 1.174-3.345 2.667H4.232l.883-3.495zM16.145 8h-3.849a2.096 2.096 0 0 1 1.943-1.333c.879 0 1.628.557 1.906 1.333zM2.02 6.667c.372 0 .674.299.674.666A.671.671 0 0 1 2.021 8a.671.671 0 0 1-.673-.667c0-.367.302-.666.673-.666zM6.738 18a.671.671 0 0 1-.674.667H4.717A.671.671 0 0 1 4.043 18v-.667h2.695V18zm12.219 0a.671.671 0 0 1-.674.667h-1.347a.671.671 0 0 1-.674-.667v-.667h2.695V18zm2.695-2.667a.671.671 0 0 1-.673.667H2.02a.671.671 0 0 1-.673-.667v-4c0-1.102.907-2 2.021-2h16.262c1.114 0 2.021.898 2.021 2v4z"/>
        <path d="M8.75 12c-.414 0-.75.28-.75.625v1.25c0 .345.336.625.75.625s.75-.28.75-.625v-1.25c0-.345-.336-.625-.75-.625zM11.75 12c-.414 0-.75.28-.75.625v1.25c0 .345.336.625.75.625s.75-.28.75-.625v-1.25c0-.345-.336-.625-.75-.625zM14.25 12c-.414 0-.75.28-.75.625v1.25c0 .345.336.625.75.625s.75-.28.75-.625v-1.25c0-.345-.336-.625-.75-.625z"/>
    </g>
</svg>
