<svg xmlns="http://www.w3.org/2000/svg" width="27" height="20" viewBox="0 0 27 20">
    <g fill="#60585A" fill-rule="nonzero">
        <path d="M4.103 9.115a1.383 1.383 0 0 0 0 1.988 1.478 1.478 0 0 0 2.043 0c3.887-3.783 10.213-3.783 14.1 0a1.46 1.46 0 0 0 2.037 0 1.383 1.383 0 0 0 0-1.988c-5.01-4.88-13.17-4.88-18.18 0z"/>
        <path d="M8.392 12.883a1.271 1.271 0 0 0 0 1.879 1.498 1.498 0 0 0 2.01 0c1.708-1.6 4.494-1.6 6.2 0 .277.258.64.39 1.003.39.364 0 .727-.132 1.003-.39a1.265 1.265 0 0 0 0-1.874c-2.813-2.638-7.398-2.638-10.216-.005z"/>
        <ellipse cx="13.5" cy="18.182" rx="1.841" ry="1.818"/>
        <path d="M26.578 5.406c-7.212-7.208-18.944-7.208-26.156 0a1.453 1.453 0 0 0 0 2.048 1.452 1.452 0 0 0 2.047 0c6.081-6.088 15.98-6.088 22.067 0a1.442 1.442 0 0 0 2.042 0 1.453 1.453 0 0 0 0-2.048z"/>
    </g>
</svg>
