<svg xmlns="http://www.w3.org/2000/svg" width="23" height="22" viewBox="0 0 23 22">
    <g fill="#60585A" fill-rule="nonzero" stroke="#60585A" stroke-width=".5">
        <path d="M15.934 10.767a.47.47 0 0 1-.458-.556.492.492 0 0 1 .07-.167.442.442 0 0 1 .209-.17.465.465 0 1 1 .179.893z"/>
        <path d="M21.59 5.875c-1.056 0-1.915.85-1.915 1.896v.563h-.923c.06-.148.094-.31.094-.48v-.111A1.3 1.3 0 0 0 17.54 6.45h-6.535v-4.16A1.3 1.3 0 0 0 9.699 1h-.11c-.61 0-1.124.417-1.266.977H5.784C3.146 1.977 1 4.1 1 6.71v3.265c0 2.078 1.707 3.769 3.806 3.769h1.08a5.212 5.212 0 0 0 1.893 1.57 4.916 4.916 0 0 0-.827.439 2.851 2.851 0 0 0-1.448-.392c-1.57 0-2.848 1.265-2.848 2.82S3.933 21 5.504 21c1.57 0 2.848-1.265 2.848-2.82 0-.725-.278-1.387-.733-1.887a4.116 4.116 0 0 1 2.045-.54c.738 0 1.438.193 2.046.54a2.794 2.794 0 0 0-.734 1.887c0 1.555 1.278 2.82 2.849 2.82 1.57 0 2.848-1.265 2.848-2.82s-1.278-2.82-2.848-2.82c-.529 0-1.024.143-1.448.392a4.916 4.916 0 0 0-.828-.438 5.212 5.212 0 0 0 1.893-1.571h1.08c2.1 0 3.806-1.691 3.806-3.77v-.828h1.757c.227 0 .41-.181.41-.405v-.97c0-.597.491-1.084 1.095-1.084.226 0 .41-.181.41-.405a.408.408 0 0 0-.41-.406zM7.532 18.18a2.02 2.02 0 0 1-2.028 2.009 2.02 2.02 0 0 1-2.028-2.01c0-1.107.91-2.008 2.028-2.008.263 0 .514.05.745.14a4.842 4.842 0 0 0-1.138 1.677.404.404 0 0 0 .227.528c.21.083.45-.017.534-.225a4.055 4.055 0 0 1 1.077-1.52c.36.363.583.86.583 1.409zm8.32 0a2.02 2.02 0 0 1-2.027 2.009 2.02 2.02 0 0 1-2.028-2.01c0-.547.223-1.045.583-1.407.462.407.834.922 1.077 1.519a.41.41 0 0 0 .761-.303 4.842 4.842 0 0 0-1.139-1.676c.231-.091.483-.141.746-.141a2.02 2.02 0 0 1 2.028 2.009zM17.54 7.263c.268 0 .485.215.485.48v.111c0 .265-.217.48-.485.48h-6.535V7.262h6.535zM9.104 2.29c0-.264.217-.48.485-.48h.11c.268 0 .486.216.486.48v6.043H9.104V2.291zM1.82 6.71c0-2.162 1.779-3.92 3.964-3.92h2.5v5.545H1.82V6.71zm7.844 8.233c-.976 0-1.942-.437-2.7-1.2h5.4c-.757.763-1.724 1.2-2.7 1.2zm7.844-4.968c0 1.63-1.34 2.958-2.986 2.958H4.806a2.983 2.983 0 0 1-2.934-2.41H14.34c.227 0 .41-.182.41-.406a.408.408 0 0 0-.41-.406H1.82v-.565h15.688v.829z"/>
    </g>
</svg>
