<svg xmlns="http://www.w3.org/2000/svg" width="13" height="18" viewBox="0 0 13 18">
    <g fill="#9DA9A6" fill-rule="nonzero">
        <path d="M4.536 4.087l1.092-1.123v8.9c0 .48.378.869.844.869a.856.856 0 0 0 .844-.868v-8.9l1.092 1.122a.83.83 0 0 0 1.193 0 .886.886 0 0 0 0-1.228L7.07.254a.87.87 0 0 0-.062-.057L6.978.175 6.94.146 6.905.124C6.893.117 6.882.109 6.87.103L6.832.084 6.795.066 6.758.052 6.717.037 6.68.027l-.043-.01L6.594.01 6.555.004A.84.84 0 0 0 6.477 0h-.01a.824.824 0 0 0-.078.004L6.35.01l-.043.007-.042.01-.038.01-.04.015-.038.014c-.013.005-.024.012-.036.018l-.04.019-.033.02-.037.023-.035.027-.031.024a.864.864 0 0 0-.06.055l-.002.002L3.342 2.86a.886.886 0 0 0 0 1.228.828.828 0 0 0 1.194 0z"/>
        <path d="M12.1 5.788H9.849a.856.856 0 0 0-.845.868c0 .48.378.868.845.868h1.406v8.682H1.688V7.524h1.407a.856.856 0 0 0 .844-.868.856.856 0 0 0-.844-.868H.845A.856.856 0 0 0 0 6.656v10.418c0 .48.378.868.844.868H12.1a.856.856 0 0 0 .844-.868V6.656a.856.856 0 0 0-.844-.868z"/>
    </g>
</svg>
