<svg xmlns="http://www.w3.org/2000/svg" width="17" height="20" viewBox="0 0 17 20">
    <g fill="#60585A" fill-rule="nonzero">
        <path d="M2.05 9.958C.748 11.044 0 12.616 0 14.27 0 17.43 2.691 20 6 20s6-2.57 6-5.73c0-.451-.384-.818-.857-.818s-.857.367-.857.818c0 2.257-1.923 4.093-4.286 4.093-2.363 0-4.286-1.836-4.286-4.093 0-1.182.534-2.303 1.464-3.078a.793.793 0 0 0 .082-1.155.885.885 0 0 0-1.21-.08z"/>
        <path d="M8.563 2.531A2.534 2.534 0 0 0 6.03 0 2.534 2.534 0 0 0 3.5 2.531c0 1.1.706 2.036 1.688 2.384v6.476c0 .466.378.844.843.844h6.401l3.128 3.128a.84.84 0 0 0 1.193 0 .844.844 0 0 0 0-1.194l-3.375-3.375a.844.844 0 0 0-.597-.247H6.875V7.172h3.375a.844.844 0 0 0 0-1.687H6.875v-.57A2.533 2.533 0 0 0 8.563 2.53zM6.03 1.688a.845.845 0 1 1-.001 1.689.845.845 0 0 1 .001-1.69z"/>
    </g>
</svg>
