<svg xmlns="http://www.w3.org/2000/svg" width="99" height="100" viewBox="0 0 99 100">
    <g fill="none" fill-rule="nonzero">
        <path fill="#FAB072" d="M72.34 84.894s8.511-10.426 12.98-15.107c2.34-2.553 3.403-5.957 1.489-8.723-1.915-2.766-6.383-3.83-8.724-1.49-4.468 4.681-15.106 17.447-15.106 17.447l9.361 7.873z"/>
        <path fill="#FDCD9A" d="M97.447 60.426c-1.915-2.766-6.383-3.83-8.724-1.49-4.468 4.681-15.106 17.447-15.106 17.447l-29.574 3.191v-12.34s-6.17-6.17-17.022-6.17c-14.68 0-23.617 7.021-25.957 8.936-.426.213-.426.638-.426 1.064v14.893c0 .852.639 1.49 1.49 1.49H22.34l28.937 12.127c.425.213.85.213 1.276 0L82.98 84.255s8.51-10.425 12.978-15.106c2.34-2.553 3.617-5.958 1.49-8.723z"/>
        <path fill="#FAB072" d="M95.957 62.979C91.49 67.659 80 81.064 80 81.064L51.915 93.617 22.34 81.277H.638v4.468c0 .85.639 1.489 1.49 1.489H22.34l28.937 12.128c.425.212.85.212 1.276 0l30.426-15.32s8.51-10.425 12.978-15.106c2.34-2.34 3.405-5.745 1.703-8.298-.426 1.064-.851 1.702-1.703 2.34z"/>
        <path fill="#FDCD9A" d="M63.83 72.128S38.085 61.064 27.02 61.064c-14.68 0-23.617 7.021-25.957 8.936-.426.213-.426.638-.426 1.064v8.723h43.617l15.958 4.468c3.191 1.064 6.808-.85 7.872-4.042 1.064-3.192-1.064-7.022-4.255-8.085z"/>
        <path fill="#FAB072" d="M60.213 79.362L48.936 76.17c-2.553-.638-5.319.639-6.383 3.404L60 84.043c3.191 1.063 6.809-.852 7.872-4.043.426-1.49.426-2.979-.212-4.255-1.064 2.978-4.469 4.468-7.447 3.617z"/>
        <path fill="#EB4E7E" d="M84.468 30.851c-.213-.638-.851-1.064-1.49-1.064h-12.34V1.915c0-.851-.638-1.49-1.49-1.49H31.703c-.85 0-1.49.639-1.49 1.49v27.872h-12.34c-.638 0-1.276.426-1.489 1.064-.213.638 0 1.277.426 1.702l32.553 28.085c.212.213.638.426 1.064.426.425 0 .638-.213 1.063-.426l32.554-28.085c.638-.425.85-1.064.425-1.702z"/>
        <path fill="#231F20" d="M34.894 39.149V1.915c0-.851.638-1.49 1.489-1.49h-4.68c-.852 0-1.49.639-1.49 1.49v27.872h-12.34c-.639 0-1.277.426-1.49 1.064-.213.638 0 1.277.426 1.702l32.553 28.085c.212.213.638.426 1.064.426.425 0 .638-.213 1.063-.426l4.043-3.404-20.638-18.085z" opacity=".1"/>
        <g fill="#FFF">
            <path d="M41.064 29.787c-1.277 0-1.915-1.49-1.064-2.553L58.723 8.511c.639-.639 1.49-.639 2.128 0 .638.638.638 1.489 0 2.127L42.128 29.362a1.625 1.625 0 0 1-1.064.425zM58.298 29.787c-2.553 0-4.468-2.127-4.468-4.468 0-2.34 2.127-4.468 4.468-4.468 2.553 0 4.468 2.128 4.468 4.468s-1.915 4.468-4.468 4.468zm0-6.383c-.851 0-1.702.639-1.702 1.702 0 1.064.638 1.703 1.702 1.703.85 0 1.702-.639 1.702-1.703 0-1.063-.851-1.702-1.702-1.702zM42.766 17.234c-2.553 0-4.468-2.128-4.468-4.468s2.128-4.468 4.468-4.468c2.553 0 4.468 2.128 4.468 4.468s-2.128 4.468-4.468 4.468zm0-6.17c-.851 0-1.702.638-1.702 1.702 0 .851.638 1.702 1.702 1.702s1.702-.638 1.702-1.702c-.213-.851-.851-1.702-1.702-1.702z"/>
        </g>
    </g>
</svg>
