<svg xmlns="http://www.w3.org/2000/svg" width="40" height="40" viewBox="0 0 40 40">
    <g fill="none" fill-rule="nonzero">
        <path fill="#FFB125" d="M.64 25.217l2.945.462a.097.097 0 0 1 .082.081l.438 2.793a.097.097 0 0 0 .082.082l2.792.438a.097.097 0 0 1 .082.081l.471 3.002a.097.097 0 0 0 .081.081l3.002.471a.097.097 0 0 1 .081.082l.47 2.992a.097.097 0 0 0 .081.081l2.992.47a.097.097 0 0 1 .082.081l.462 2.945c.013.083.114.111.176.05l24.45-24.45c.061-.062.033-.163-.05-.176l-2.945-.462a.097.097 0 0 1-.081-.082l-.47-2.992a.097.097 0 0 0-.081-.081l-2.992-.47a.097.097 0 0 1-.082-.081l-.47-3.002a.097.097 0 0 0-.082-.081l-3.002-.471a.097.097 0 0 1-.081-.082l-.438-2.792a.097.097 0 0 0-.082-.082l-2.793-.438a.097.097 0 0 1-.08-.082L25.216.641c-.013-.083-.114-.111-.176-.05L.59 25.041c-.061.061-.033.163.05.176z"/>
        <path fill="#FF901D" d="M32.79 10.696a.098.098 0 0 1-.081-.081l-.472-3.001a.098.098 0 0 0-.081-.082l-3.001-.47a.098.098 0 0 1-.082-.082l-.438-2.793a.098.098 0 0 0-.082-.081l-2.792-.439a.098.098 0 0 1-.082-.081L25.217.64c-.013-.082-.114-.111-.176-.05l-2.384 2.384c.062-.061.163-.033.176.05l.462 2.945c.007.042.04.075.082.081l2.792.439c.042.006.075.039.082.08l.438 2.794c.007.042.04.075.082.081l3.001.471c.042.007.075.04.081.082l.472 3.001c.006.042.039.075.08.081l2.993.47a.097.097 0 0 1 .081.082l.448 2.674a.75.75 0 0 1-.21.655L14.304 36.374a.097.097 0 0 1 .017.04l.462 2.945c.013.083.115.111.176.05l22.066-22.066 2.384-2.384c.061-.061.033-.163-.05-.176l-2.944-.462a.097.097 0 0 1-.04-.017.096.096 0 0 1-.042-.064l-.47-2.992a.098.098 0 0 0-.081-.082l-2.992-.47z"/>
        <path fill="#61AFF6" d="M.591 25.04c-.061.063-.033.164.05.177l2.944.462a.097.097 0 0 1 .082.081l.438 2.793a.097.097 0 0 0 .082.082l2.792.438a.097.097 0 0 1 .082.081l.471 3.002a.097.097 0 0 0 .081.081l3.002.471a.097.097 0 0 1 .081.082l.47 2.992a.097.097 0 0 0 .081.081l2.992.47a.097.097 0 0 1 .082.081l.462 2.945c.013.083.114.111.176.05l4.849-4.85L5.44 20.193.59 25.041z"/>
        <path fill="#55A2F0" d="M14.304 36.374l.01.017a.086.086 0 0 1 .007.024l.462 2.944a.097.097 0 0 0 .097.083.107.107 0 0 0 .08-.033l4.848-4.849-1.845-1.845-3.66 3.66z"/>
        <path fill="#000" d="M30.906 17.82c.88-.88 1.182-1.947.14-2.99l-1.716-1.716c-1.044-1.043-2.11-.741-2.991.14-.893.892-1.182 1.947-.14 2.99l1.716 1.716c1.044 1.043 2.098.753 2.99-.14zm-3.825-3.825c.452-.452.939-.521 1.414-.046l1.715 1.716c.476.475.406.962-.046 1.414-.452.452-.927.51-1.403.035l-1.715-1.716c-.475-.475-.417-.95.035-1.403zM22.42 9.266c-.266-.267-.695-.185-.926.046-.14.14-.22.337-.14.557l4.266 12.774c.023.093.07.162.128.22a.634.634 0 0 0 .88-.023c.163-.162.244-.406.174-.614l-4.23-12.74a.68.68 0 0 0-.151-.22zM17.274 14.436c-.892.893-1.182 1.947-.139 2.99l1.716 1.716c1.043 1.043 2.098.754 2.99-.139.881-.88 1.183-1.947.14-2.99l-1.716-1.716c-1.044-1.043-2.11-.742-2.99.139zM21.1 18.26c-.452.452-.927.51-1.402.035L17.98 16.58c-.475-.475-.417-.95.035-1.402.452-.452.939-.522 1.414-.047l1.716 1.716c.475.475.405.962-.047 1.414zM15.118 16.815a.558.558 0 0 0-.79 0l-4.101 4.101a.558.558 0 0 0 .789.79l4.102-4.103a.558.558 0 0 0 0-.788zM13.487 24.734a.556.556 0 0 0 .394-.164l4.102-4.101a.558.558 0 0 0-.789-.79l-4.102 4.103a.558.558 0 0 0 .395.952zM19.218 30.465a.556.556 0 0 0 .394-.164l4.102-4.102a.558.558 0 0 0-.789-.788l-4.102 4.101a.558.558 0 0 0 .395.953zM16.352 27.6a.556.556 0 0 0 .395-.164l4.101-4.102a.558.558 0 0 0-.788-.789l-4.102 4.102a.558.558 0 0 0 .394.952z"/>
        <path fill="#000" d="M39.967 14.676a.652.652 0 0 0-.521-.444l-2.614-.41-.418-2.661a.654.654 0 0 0-.546-.546l-2.66-.418-.42-2.67a.653.653 0 0 0-.546-.546l-2.67-.419-.386-2.462a.653.653 0 0 0-.546-.546l-2.462-.386-.41-2.613a.652.652 0 0 0-.444-.522.663.663 0 0 0-.678.164l-3.759 3.76a.558.558 0 0 0 .789.788l3.13-3.13.322 2.056a.654.654 0 0 0 .546.547l2.462.386.386 2.462a.654.654 0 0 0 .546.546l2.67.42.42 2.669a.654.654 0 0 0 .545.546l2.661.418.418 2.661a.653.653 0 0 0 .546.546l2.056.323L19.808 33.77l-1.83-1.83a.558.558 0 0 0-.79.788l1.83 1.831-3.823 3.824-.323-2.056a.654.654 0 0 0-.546-.546l-2.66-.418-.419-2.66a.656.656 0 0 0-.546-.546l-2.67-.42-.42-2.67a.654.654 0 0 0-.545-.546l-2.462-.386-.386-2.462a.653.653 0 0 0-.546-.546l-2.056-.323 3.824-3.824 8.88 8.88a.558.558 0 0 0 .789-.789l-8.88-8.88L18.877 7.544a.558.558 0 0 0-.789-.79L.197 24.647a.663.663 0 0 0-.085.841c.1.15.259.252.442.28l2.614.411.386 2.462a.653.653 0 0 0 .546.546l2.462.386.42 2.67a.651.651 0 0 0 .504.536c.013.003.026.008.041.01l2.67.42.418 2.66a.654.654 0 0 0 .546.546l2.661.418.41 2.614a.652.652 0 0 0 .65.554.666.666 0 0 0 .472-.197l24.45-24.45a.664.664 0 0 0 .163-.677z"/>
    </g>
</svg>
