<svg xmlns="http://www.w3.org/2000/svg" width="18" height="25" viewBox="0 0 18 25">
    <g fill="#FFF" fill-rule="nonzero">
        <path d="M9 0C4.037 0 0 4.01 0 8.94v7.12C0 20.99 4.037 25 9 25c4.962 0 9-3.998 9-8.913V8.94C18 4.01 13.962 0 9 0zm7.307 16.087c0 4.002-3.278 7.257-7.307 7.257-4.03 0-7.307-3.268-7.307-7.284V8.94C1.693 4.924 4.97 1.656 9 1.656c4.03 0 7.307 3.268 7.307 7.284v7.147z"/>
        <path d="M9 7c-.552 0-1 .407-1 .91v3.18c0 .503.448.91 1 .91s1-.407 1-.91V7.91C10 7.406 9.552 7 9 7z"/>
    </g>
</svg>
