<svg xmlns="http://www.w3.org/2000/svg" width="100" height="100" viewBox="0 0 100 100">
    <path fill="#E03030" fill-rule="nonzero" d="M50 0C22.428 0 0 22.43 0 50s22.428 50 50 50 50-22.43 50-50S77.572 0 50 0zm0 95.833C24.727 95.833 4.167 75.273 4.167 50c0-11.888 4.587-22.698 12.036-30.85l10.448 10.447c-3.36 1.074-5.818 4.19-5.818 7.903v29.167c0 4.596 3.74 8.333 8.334 8.333h41.666c.38 0 .743-.063 1.109-.112l8.909 8.909C72.698 91.246 61.888 95.833 50 95.833zM50 37.5c-2.73 0-5.256.8-7.443 2.111l-6.278-6.278h2.442c1.11 0 2.16-.433 2.946-1.22l2.945-2.946h10.775l2.946 2.946a4.138 4.138 0 0 0 2.946 1.22h9.554A4.17 4.17 0 0 1 75 37.5v29.167c0 1.464-.804 2.693-1.95 3.436L62.471 59.526c1.31-2.187 2.111-4.714 2.111-7.443C64.583 44.043 58.04 37.5 50 37.5zm-4.386 5.168c1.338-.626 2.814-1.001 4.386-1.001 5.746 0 10.417 4.673 10.417 10.416 0 1.572-.376 3.048-1.002 4.386l-13.8-13.8zM56.89 59.836C55.05 61.473 52.653 62.5 50 62.5c-5.746 0-10.417-4.673-10.417-10.417 0-2.652 1.027-5.048 2.665-6.89L56.89 59.837zM39.303 42.249c-2.39 2.599-3.886 6.034-3.886 9.834 0 8.04 6.543 14.584 14.583 14.584 3.8 0 7.236-1.496 9.835-3.887l8.053 8.054H29.167A4.17 4.17 0 0 1 25 66.667V37.5a4.17 4.17 0 0 1 4.167-4.167h1.22l8.916 8.916zm44.494 38.602l-7.743-7.743c1.883-1.529 3.113-3.832 3.113-6.441V37.5c0-4.596-3.74-8.333-8.334-8.333H61.28l-2.946-2.946A4.138 4.138 0 0 0 55.388 25H44.613c-1.111 0-2.161.433-2.946 1.22l-2.946 2.947h-6.608L19.149 16.203C27.302 8.754 38.112 4.167 50 4.167c25.273 0 45.833 20.56 45.833 45.833 0 11.888-4.587 22.698-12.036 30.85z"/>
</svg>
