<svg xmlns="http://www.w3.org/2000/svg" width="100" height="93" viewBox="0 0 100 93">
    <g fill="#50E3C2" fill-rule="nonzero">
        <path d="M81.211 24.345A29.065 29.065 0 0 0 72.197 7.71 28.741 28.741 0 0 0 52.69.083a28.7 28.7 0 0 0-15.688 4.65 28.904 28.904 0 0 0-9.384 9.94 16.466 16.466 0 0 0-3.039-.289c-8.727 0-15.832 7.15-15.832 15.934 0 1.137.124 2.232.329 3.307C3.429 37.758 0 44.413 0 51.5c0 5.725 2.115 11.284 5.975 15.686 3.963 4.506 9.2 7.172 14.785 7.482h17.824a2.77 2.77 0 0 0 2.771-2.79 2.77 2.77 0 0 0-2.772-2.79H21.006c-8.398-.517-15.462-8.556-15.462-17.608 0-5.849 3.121-11.305 8.152-14.26 1.17-.682 1.663-2.108 1.212-3.39a10.183 10.183 0 0 1-.616-3.554c0-5.704 4.62-10.354 10.287-10.354 1.212 0 2.403.206 3.511.62a2.778 2.778 0 0 0 3.47-1.426C35.4 10.912 43.697 5.62 52.71 5.62c12.115 0 22.115 9.135 23.265 21.246a2.78 2.78 0 0 0 2.3 2.48c9.138 1.57 16.037 10.064 16.037 19.757 0 10.271-8.029 19.2-17.926 19.964H61.253a2.77 2.77 0 0 0-2.773 2.79 2.77 2.77 0 0 0 2.773 2.79h15.441c6.263-.455 12.115-3.348 16.468-8.184a25.83 25.83 0 0 0 6.694-17.36c-.02-11.594-7.885-21.907-18.645-24.759z"/>
        <path d="M66.57 54.147a2.794 2.794 0 0 0 0-3.948L51.89 35.423a2.796 2.796 0 0 0-1.952-.827 2.71 2.71 0 0 0-1.95.827L33.306 50.199a2.794 2.794 0 0 0 0 3.948 2.781 2.781 0 0 0 1.95.826c.699 0 1.418-.268 1.951-.826l9.96-10.024V90.19a2.77 2.77 0 0 0 2.771 2.79 2.77 2.77 0 0 0 2.772-2.79V44.123l9.96 10.024a2.727 2.727 0 0 0 3.9 0z"/>
    </g>
</svg>
